<?xml version="1.0" encoding="UTF-8"?>
<svg id="_レイヤー_1" data-name="レイヤー 1" xmlns="http://www.w3.org/2000/svg" version="1.1" viewBox="0 0 150 90">
  <defs>
    <style>
      .cls-1 {
        fill: #271800;
      }

      .cls-1, .cls-2 {
        stroke-width: 0px;
      }

      .cls-2 {
        fill: #e83434;
      }
    </style>
  </defs>
  <g id="_レイヤー_2" data-name="レイヤー 2">
    <g id="_レイヤー_1-2" data-name="レイヤー 1-2">
      <path class="cls-2" d="M31.8,62.8c-9.2,0-16.7-2.9-22.8-8.9C2.9,47.9,0,40.6,0,31.5S3,15.4,9.2,9.2,22.6.1,31.5.1s17.7,2.8,23.2,8.4c5.5,5.6,8.4,13.5,8.4,23.6v31h-16.3v-29.1c0-4.8-1.3-8.8-3.8-11.9-2.7-3.4-6.8-5.3-11.1-5.3-4.1,0-7.6,1.2-10.6,4.1-3,2.9-4.7,6.8-4.7,10.9,0,4,1.6,7.9,4.5,10.7,2.8,2.8,6.8,4.2,10.4,4.5.8,0,5.9.3,8.5.2v15.5h-8,0Z"/>
      <path class="cls-2" d="M150,31.1c0,9.2-2.9,16.7-8.9,22.8-6,6.1-13.4,9-22.5,9s-16.1-3-22.3-9.1c-6.1-6.2-9.1-13.4-9.1-22.3s2.8-17.6,8.4-23.2c5.6-5.5,13.6-8.3,23.6-8.3h15.2v16.3h-13.3c-4.8,0-8.9,1.3-11.9,3.8-3.4,2.7-5.3,6.7-5.3,11,0,4.1,1.2,7.6,4.1,10.6,2.9,3,6.8,4.6,10.9,4.7,4,0,7.9-1.6,10.7-4.5,2.8-2.8,4.2-6.8,4.5-10.4,0-.8.3-4.9.2-7.5h15.6v7h0Z"/>
      <rect class="cls-2" x="48.4" y="27" width="49.4" height="16.1"/>
      <path class="cls-1" d="M31,76.2l-3.1-.5c.3-1.1.9-2.1,1.8-2.8.9-.6,2.1-.9,3.8-.9,1.2,0,2.3.1,3.4.5.7.3,1.2.8,1.6,1.4.3.6.5,1.6.5,3.1v4c0,.8,0,1.7.1,2.5.1.6.3,1.2.6,1.7h-3.4c0-.2-.2-.6-.3-1,0-.2,0-.3-.1-.4-.5.5-1.2,1-1.9,1.3-.7.3-1.4.4-2.1.4-1.2,0-2.3-.3-3.2-1.1-.8-.7-1.2-1.7-1.2-2.7,0-.7.2-1.4.5-2,.4-.6.9-1,1.5-1.3.9-.4,1.8-.6,2.7-.8,1.1-.2,2.3-.5,3.3-.8v-.3c0-.5-.1-1-.5-1.4-.6-.3-1.2-.5-1.8-.4-.5,0-1,0-1.4.4-.4.3-.7.7-.9,1.2ZM35.6,79c-.7.2-1.4.4-2.1.5-.6,0-1.3.3-1.8.5-.4.3-.7.7-.7,1.2,0,.5.2.9.5,1.2.4.4.9.6,1.4.5.6,0,1.3-.2,1.8-.6.4-.3.7-.7.8-1.1.1-.5.2-1.1.1-1.7v-.7Z"/>
      <path class="cls-1" d="M45.3,67.3v6.6c1.5-1.8,4-2.4,6.1-1.5.6.2,1.1.6,1.4,1.1.3.5.5,1,.6,1.5.1.9.2,1.7.2,2.6v7.6h-3.5v-6.9c0-.9,0-1.7-.2-2.6-.1-.4-.4-.7-.7-.9-.4-.2-.8-.3-1.2-.3-.5,0-1.1.1-1.5.4-.5.3-.8.7-1,1.3-.2.8-.3,1.6-.3,2.5v6.5h-3.4v-17.9h3.5Z"/>
      <path class="cls-1" d="M67.5,76.1l-3.4.6c0-.6-.3-1.1-.8-1.5-.4-.4-1-.5-1.6-.5-.8,0-1.5.3-2,.9-.5.6-.8,1.6-.8,3s.3,2.6.8,3.3c.5.6,1.3,1,2.1.9.6,0,1.2-.2,1.6-.5.5-.5.8-1.2.9-1.9l3.4.5c-.2,1.4-1,2.6-2,3.5-1.2.8-2.6,1.3-4,1.2-1.7,0-3.4-.6-4.6-1.8-1.1-1.2-1.7-2.9-1.7-5s.5-3.8,1.7-5c1.2-1.2,2.9-1.9,4.6-1.8,1.3,0,2.7.3,3.8,1,1,.8,1.7,1.9,2,3.1Z"/>
      <path class="cls-1" d="M71.1,85.9l2.1.3c0,.5.3,1,.7,1.4.6.4,1.4.6,2.2.6.8,0,1.6-.2,2.3-.6.5-.4.9-1,1.1-1.6.1-.9.2-1.8.2-2.7-.8,1-2.1,1.6-3.5,1.6-1.6,0-3.1-.6-4-1.9-1-1.3-1.5-2.9-1.4-4.5,0-1.1.2-2.2.7-3.3.4-.9,1-1.8,1.9-2.3.9-.6,1.9-.8,2.9-.8,1.4,0,2.8.6,3.6,1.8v-1.5h2v10.8c0,1.9-.2,3.3-.6,4.1-.4.8-1.1,1.5-1.9,1.9-1,.5-2.1.7-3.2.7-1.3,0-2.5-.3-3.6-1-1-.7-1.5-1.9-1.3-3.1ZM72.8,78.4c0,1.6.3,2.8,1,3.6.6.7,1.5,1.1,2.4,1.1.9,0,1.8-.4,2.5-1.1.7-.7,1-1.9,1-3.5s-.3-2.7-1-3.5c-.6-.7-1.5-1.2-2.5-1.2-.9,0-1.8.4-2.4,1.1-.7.8-1,1.9-1,3.4h0Z"/>
      <path class="cls-1" d="M84.8,84.9v-12.5h1.9v1.9c.3-.7.8-1.3,1.3-1.7.4-.3.9-.4,1.4-.4.8,0,1.5.3,2.2.7l-.7,2c-.5-.3-1-.4-1.6-.5-.5,0-.9.1-1.3.4-.4.3-.7.7-.8,1.2-.2.8-.4,1.6-.4,2.5v6.5h-2.1Z"/>
      <path class="cls-1" d="M92.1,78.7c0-2.3.6-4,1.9-5.1,1.1-.9,2.5-1.4,3.9-1.4,1.6,0,3.1.6,4.2,1.7,1.1,1.1,1.6,2.7,1.6,4.7,0,1.3-.2,2.6-.7,3.8-.5.9-1.2,1.7-2.1,2.1-.9.5-2,.8-3,.8-1.6,0-3.1-.5-4.3-1.7-1.1-1.1-1.6-2.7-1.6-4.8ZM94.3,78.7c0,1.6.3,2.8,1,3.6,1.3,1.4,3.5,1.6,4.9.3.1-.1.2-.2.3-.3.7-.8,1-2,1-3.7s-.3-2.7-1.1-3.5c-1.3-1.4-3.5-1.6-4.9-.3-.1.1-.2.2-.3.3-.7.8-1.1,2-1.1,3.6h0Z"/>
      <path class="cls-1" d="M114.5,84.9v-1.8c-.9,1.4-2.4,2.2-4,2.1-.7,0-1.4-.1-2.1-.4-.6-.2-1.1-.6-1.4-1.1-.3-.5-.5-1-.7-1.6-.1-.7-.1-1.3-.1-2v-7.7h2.1v6.9c0,.7,0,1.5.1,2.2.1.5.4,1,.8,1.3.5.3,1,.5,1.6.5.6,0,1.3-.2,1.8-.5.5-.3.9-.8,1.2-1.3.3-.8.4-1.6.3-2.4v-6.7h2.1v12.5h-1.9Z"/>
      <path class="cls-1" d="M119.7,89.7v-17.3h1.9v1.6c.4-.6.9-1.1,1.5-1.4.6-.3,1.4-.5,2.1-.5,1,0,2,.3,2.8.8.8.6,1.5,1.4,1.8,2.3.9,2.2.8,4.6,0,6.7-.4,1-1.1,1.8-2,2.3-.8.5-1.8.8-2.7.8-.7,0-1.3-.1-1.9-.4-.6-.3-1-.7-1.4-1.1v6.1h-2.1ZM121.6,78.7c0,1.6.3,2.8,1,3.6.6.7,1.4,1.1,2.4,1.2.9,0,1.8-.4,2.4-1.2.7-.8,1-2,1-3.7,0-1.6-.3-2.8-1-3.6-.6-.7-1.4-1.2-2.3-1.2-1,0-1.8.5-2.4,1.3-.7.8-1,2.1-1,3.7h0Z"/>
    </g>
  </g>
</svg>