<?xml version="1.0" encoding="UTF-8"?>
<svg id="_レイヤー_1" data-name="レイヤー 1" xmlns="http://www.w3.org/2000/svg" version="1.1" viewBox="0 0 140 140">
  <defs>
    <style>
      .cls-1 {
        stroke-width: 0px;
      }

      .cls-1, .cls-2 {
        fill: none;
      }

      .cls-2 {
        stroke: #42af1e;
        stroke-linecap: round;
        stroke-linejoin: round;
        stroke-width: 2px;
      }
    </style>
  </defs>
  <rect class="cls-1" width="140" height="140"/>
  <g>
    <path class="cls-2" d="M42.7,115.8h-4.3c-5.7,0-9.8-5.6-7.9-11l5.9-17.7c1.5-4.5,4.9-8,9.3-9.7l15.5-6.2"/>
    <path class="cls-2" d="M78.8,71.1l15.5,6.2c4.4,1.7,7.8,5.2,9.3,9.7l5.9,17.7c1.8,5.4-2.2,11-7.9,11h-4.3"/>
    <path class="cls-2" d="M62.8,63c0,2.8-.5,5.5-1.7,8.1l8.8,7.2,8.8-7.2c-1.2-2.6-1.6-5.3-1.7-8.1h0"/>
    <polygon class="cls-2" points="46.4 84.3 47.6 115.8 92.4 115.8 93.6 84.3 46.4 84.3"/>
    <g>
      <path class="cls-2" d="M50.6,70.6v-25.9c0-11.9,8.4-20.4,19.4-20.4s19.4,8.6,19.4,20.4v25.9"/>
      <path class="cls-2" d="M83.6,44.6v4.6c0,3.3-.9,6.6-2.7,9.3-2.8,4.2-6.6,7.6-10.9,7.6s-8.1-3.4-10.9-7.6c-1.8-2.8-2.7-6-2.7-9.3v-5c6.4-.1,9.5-6.5,9.5-6.5"/>
      <path class="cls-2" d="M64.8,35.8s4.5,10.1,18.8,8.8"/>
    </g>
  </g>
</svg>