<?xml version="1.0" encoding="UTF-8"?>
<svg id="_レイヤー_1" data-name="レイヤー 1" xmlns="http://www.w3.org/2000/svg" version="1.1" viewBox="0 0 140 140">
  <defs>
    <style>
      .cls-1 {
        stroke-width: 0px;
      }

      .cls-1, .cls-2 {
        fill: none;
      }

      .cls-2 {
        stroke: #42af1e;
        stroke-linecap: round;
        stroke-linejoin: round;
        stroke-width: 2px;
      }
    </style>
  </defs>
  <rect class="cls-1" width="140" height="140"/>
  <g>
    <g>
      <path class="cls-2" d="M61.3,31.6c0,5.2,3.9,9.4,8.7,9.4s8.7-4.2,8.7-9.4-3.9-9.4-8.7-9.4-8.7,4.2-8.7,9.4Z"/>
      <path class="cls-2" d="M57.7,84.4h-1.5c-3.8,0-6.8-3-6.8-6.8v-20.7c0-5.7,4.6-10.3,10.3-10.3h20.4c5.7,0,10.3,4.6,10.3,10.3v20.7c0,3.8-3,6.8-6.8,6.8h-1.9"/>
      <g>
        <line class="cls-2" x1="58.3" y1="60.3" x2="58.3" y2="84.3"/>
        <line class="cls-2" x1="81.7" y1="60.3" x2="81.7" y2="84.3"/>
      </g>
    </g>
    <path class="cls-2" d="M24,61.8c-2.5-3.5-1.7-8.3,1.8-10.8,3.5-2.5,8.3-1.7,10.8,1.8,2.5,3.5,2.5,9.4-1,11.9-3.5,2.5-9.1.6-11.6-2.8Z"/>
    <path class="cls-2" d="M58.1,96.6c0-3.3-2.6-5.9-5.9-6h-9.5c0,0-3.2-12.5-3.2-12.5-.5-2-1.7-3.7-3.2-4.9-1.6-1.2-3.5-1.9-5.6-1.9-4.3,0-7.8,3.5-7.8,7.8v24.5c0,4.4,3.6,7.9,7.9,7.9h27.2v6.2"/>
    <path class="cls-2" d="M31,80.8l3.5,14.5c.7,2.8,3.2,4.7,6,4.7h58.9c2.9,0,5.4-2,6-4.7l3.5-14.5"/>
    <path class="cls-2" d="M116,61.8c2.5-3.5,1.7-8.3-1.8-10.8-3.5-2.5-8.3-1.7-10.8,1.8-2.5,3.5-2.5,9.4,1,11.9,3.5,2.5,9.1.6,11.6-2.8Z"/>
    <path class="cls-2" d="M81.9,96.6c0-3.3,2.6-5.9,5.9-6h9.5c0,0,3.2-12.5,3.2-12.5.5-2,1.7-3.7,3.2-4.9,1.6-1.2,3.5-1.9,5.6-1.9,4.3,0,7.8,3.5,7.8,7.8v24.5c0,4.4-3.6,7.9-7.9,7.9h-27.2v6.2"/>
    <line class="cls-2" x1="70" y1="100.6" x2="70" y2="117.7"/>
  </g>
</svg>