<?xml version="1.0" encoding="UTF-8"?>
<svg id="_レイヤー_1" data-name="レイヤー 1" xmlns="http://www.w3.org/2000/svg" version="1.1" viewBox="0 0 140 140">
  <defs>
    <style>
      .cls-1 {
        stroke-width: 0px;
      }

      .cls-1, .cls-2 {
        fill: none;
      }

      .cls-2 {
        stroke: #42af1e;
        stroke-linecap: round;
        stroke-linejoin: round;
        stroke-width: 2px;
      }
    </style>
  </defs>
  <rect class="cls-1" width="140" height="140"/>
  <g>
    <g>
      <polygon class="cls-2" points="47.5 75.9 37 70.5 26.6 76 28.5 64.4 20 56.2 31.7 54.4 36.8 43.8 42.1 54.3 53.8 56 45.4 64.3 47.5 75.9"/>
      <polygon class="cls-2" points="80.6 54.1 70.1 48.7 59.7 54.3 61.6 42.6 53.1 34.4 64.8 32.7 69.9 22 69.9 22 75.2 32.6 86.9 34.2 86.9 34.2 78.5 42.5 80.6 54.1 80.6 54.1"/>
      <polygon class="cls-2" points="113.7 75.9 103.2 70.5 92.8 76 94.7 64.4 86.2 56.2 97.8 54.4 103 43.8 108.3 54.3 120 56 120 56 111.6 64.3 113.7 75.9"/>
    </g>
    <g>
      <path class="cls-2" d="M58.8,72.9c0,6.7,5,12.1,11.2,12.1s11.2-5.4,11.2-12.1-5-12.1-11.2-12.1-11.2,5.4-11.2,12.1Z"/>
      <path class="cls-2" d="M43.6,118v-12.2c0-7.5,6.1-13.6,13.6-13.6h25.6c7.5,0,13.6,6.1,13.6,13.6v12.2"/>
      <g>
        <line class="cls-2" x1="54.9" y1="118" x2="54.9" y2="109.4"/>
        <line class="cls-2" x1="85.1" y1="118" x2="85.1" y2="109.4"/>
      </g>
    </g>
  </g>
</svg>